HIERARCHY
ROOT hip
{
	OFFSET 0.000000 0.000000 0.000000 
	CHANNELS 6 Xposition Yposition Zposition Xrotation Zrotation Yrotation
	JOINT abdomen
	{
		OFFSET 0.000000 3.402643 0.000000 
		CHANNELS 3 Xrotation Zrotation Yrotation
		JOINT chest
		{
			OFFSET 0.000000 8.438565 -0.680529 
			CHANNELS 3 Xrotation Zrotation Yrotation
			JOINT neck
			{
				OFFSET 0.000000 10.207942 -0.272212 
				CHANNELS 3 Xrotation Zrotation Yrotation
				JOINT head
				{
					OFFSET 0.000000 3.130431 0.000000 
					CHANNELS 3 Xrotation Zrotation Yrotation
					End Site
					{
						OFFSET 0.000000 3.130435 0.000000 
					}
				}
			}
			JOINT lCollar
			{
				OFFSET 3.470700 6.669187 -0.816635 
				CHANNELS 3 Yrotation Zrotation Xrotation
				JOINT lShldr
				{
					OFFSET 3.198488 0.000000 0.000000 
					CHANNELS 3 Zrotation Yrotation Xrotation
					JOINT lForeArm
					{
						OFFSET 10.139888 0.000000 0.000000 
						CHANNELS 3 Yrotation Zrotation Xrotation
						JOINT lHand
						{
							OFFSET 8.370511 0.000000 0.000000 
							CHANNELS 3 Zrotation Yrotation Xrotation
							End Site
							{
								OFFSET 4.083176 0.000000 0.000000 
							}
						}
					}
				}
			}
			JOINT rCollar
			{
				OFFSET -3.470700 6.669187 -0.816635 
				CHANNELS 3 Yrotation Zrotation Xrotation
				JOINT rShldr
				{
					OFFSET -3.198488 0.000000 0.000000 
					CHANNELS 3 Zrotation Yrotation Xrotation
					JOINT rForeArm
					{
						OFFSET -10.139888 0.000000 0.000000 
						CHANNELS 3 Yrotation Zrotation Xrotation
						JOINT rHand
						{
							OFFSET -8.370511 0.000000 0.000000 
							CHANNELS 3 Zrotation Yrotation Xrotation
							End Site
							{
								OFFSET -4.083176 0.000000 0.000000 
							}
						}
					}
				}
			}
		}
	}
	JOINT lThigh
	{
		OFFSET 5.308129 -1.633274 1.361059 
		CHANNELS 3 Xrotation Zrotation Yrotation
		JOINT lShin
		{
			OFFSET -2.041588 -20.007561 0.000000 
			CHANNELS 3 Xrotation Zrotation Yrotation
			JOINT lFoot
			{
				OFFSET 0.000000 -19.190928 -1.224953 
				CHANNELS 3 Xrotation Yrotation Zrotation
				End Site
				{
					OFFSET 0.000000 -2.449906 4.627600 
				}
			}
		}
	}
	JOINT rThigh
	{
		OFFSET -5.308129 -1.633274 1.361059 
		CHANNELS 3 Xrotation Zrotation Yrotation
		JOINT rShin
		{
			OFFSET 2.041588 -20.007561 0.000000 
			CHANNELS 3 Xrotation Zrotation Yrotation
			JOINT rFoot
			{
				OFFSET 0.000000 -19.190928 -1.224953 
				CHANNELS 3 Xrotation Yrotation Zrotation
				End Site
				{
					OFFSET 0.000000 -2.449906 4.627600 
				}
			}
		}
	}
}
MOTION
Frames: 18
Frame Time: 0.033333
-19.575008 52.489464 99.849434 11.982422 4.121094 -18.280548 21.856680 -7.764568 -7.510670 -16.982424 19.912109 2.841797 51.553619 8.070152 2.616707 -26.074221 1.630859 -33.632816 2.000000 -2.000000 0.000000 -54.677734 -39.355473 -3.502287 -100.379341 0.714672 -2.727500 3.905163 42.258018 -33.717335 -2.000000 2.000000 0.000000 65.439453 16.220705 -42.917194 87.605576 40.562916 -5.970485 51.823635 1.750830 -73.257698 -11.323105 13.099444 2.279853 14.620071 -5.583344 -1.512073 -6.800833 -2.512228 -3.936888 -11.977854 -2.019377 -17.458136 18.321098 5.400835 1.733960 -7.153383 -8.553554 -3.148977 
-19.730734 52.560638 100.062622 10.205078 3.261719 -18.388670 22.176476 -8.276358 -7.341835 -17.470703 20.810547 2.480469 51.553619 8.070152 2.616707 -24.775393 2.138672 -34.335941 2.000000 -2.000000 0.000000 -55.263672 -41.728516 2.460939 -100.195335 0.380371 -2.756876 2.720354 43.387753 -35.629841 -2.000000 2.000000 0.000000 65.048828 15.517577 -43.112621 86.646255 40.596039 -5.506274 51.148586 0.492028 -73.115112 -8.574183 13.505376 1.995878 13.380304 -5.634372 -1.350110 -6.363657 -2.479449 -4.354406 -9.286451 -1.835548 -17.528559 17.621729 5.467319 1.234520 -6.644342 -8.594797 -2.995139 
-19.912336 52.608078 100.131241 8.427735 2.431641 -18.446852 22.514416 -9.010288 -7.083940 -18.134768 21.904299 2.080078 51.553619 8.070152 2.616707 -23.867188 2.500000 -35.292969 2.000000 -2.000000 0.000000 -56.269535 -44.121094 9.277343 -99.474365 0.201494 -2.805167 1.871580 44.460709 -37.453270 -2.000000 2.000000 0.000000 64.785156 14.960937 -43.640060 85.911652 40.752895 -4.979939 50.702972 -0.474602 -72.739151 -6.236657 13.634734 1.507379 12.125454 -5.574924 -1.575005 -5.652353 -1.944116 -4.434969 -6.999921 -1.356431 -18.602268 16.734053 5.421616 1.773890 -6.070094 -8.119987 -2.723821 
-20.110699 52.663433 100.197945 7.021485 1.914063 -18.573893 23.020838 -9.755555 -6.852070 -18.818361 22.832033 1.787110 51.553619 8.070152 2.616707 -22.949223 2.714843 -36.162109 2.000000 -2.000000 0.000000 -57.548824 -46.513672 15.617914 -98.601692 0.228342 -2.679646 0.275534 45.534679 -39.349277 -2.000000 2.000000 0.000000 64.560547 14.472657 -43.857422 85.494957 40.530884 -4.506862 50.536205 -1.121860 -73.007446 -4.392461 14.044644 1.322249 11.431975 -5.694201 -1.465894 -5.451748 -1.845399 -4.736597 -4.866142 -0.932050 -19.151390 16.210093 5.419347 1.727948 -5.498684 -7.694278 -2.980929 
-20.264236 52.663433 100.401161 5.625000 1.386719 -18.671638 23.217237 -10.073877 -7.006176 -18.964846 23.183594 1.611329 51.553619 8.070152 2.616707 -22.382814 2.968750 -36.308598 2.000000 -2.000000 0.000000 -58.906250 -48.330078 20.900909 -97.548622 0.244447 -2.739254 -1.231393 46.445236 -40.484341 -2.000000 2.000000 0.000000 64.423828 14.111328 -43.974609 84.982430 40.718685 -4.190382 50.551834 -1.836244 -73.122124 -2.470666 14.236197 1.530681 11.101775 -5.675412 -1.444885 -5.708041 -1.826021 -4.512942 -2.924801 -0.727501 -19.482441 15.679884 5.447911 1.500887 -5.199742 -7.582839 -2.717402 
-20.369066 52.639713 100.705078 4.746094 0.869141 -18.740232 23.236961 -9.985250 -7.158783 -18.789061 23.007814 1.654208 51.553619 8.070152 2.616707 -22.031256 2.919921 -36.289066 2.000000 -2.000000 0.000000 -60.175785 -49.658203 25.039063 -96.129951 -0.091963 -2.973928 -2.043632 46.642849 -40.671257 -2.000000 2.000000 0.000000 64.580078 14.140626 -43.425350 84.722427 40.762909 -4.103326 50.382469 -2.121674 -72.883423 -0.830169 14.172672 1.722612 10.750295 -5.694504 -1.425161 -5.976197 -1.656501 -4.798169 -1.317796 -0.955938 -19.136858 15.693477 5.966555 1.574147 -5.440008 -7.358048 -2.287436 
-20.454950 52.615986 101.039253 3.857422 0.507813 -18.954966 23.276423 -9.811448 -7.454906 -18.242188 22.792969 1.654174 51.553619 8.070152 2.616707 -21.699219 2.714844 -36.005863 2.000000 -2.000000 0.000000 -61.259762 -50.771488 28.576420 -94.735031 0.295455 -2.703108 -3.587848 46.659000 -40.479538 -2.000000 2.000000 0.000000 64.677734 14.130858 -42.685551 84.278076 40.698200 -3.650840 50.403278 -1.672937 -72.981674 0.516795 14.206182 1.837338 10.574346 -5.694160 -1.370706 -6.489007 -1.826417 -4.975164 0.049083 -0.992359 -18.981043 15.510344 5.993086 1.404621 -5.647487 -7.413658 -2.379924 
-20.537182 52.536911 101.364922 3.164063 0.341797 -19.140568 23.304632 -9.630926 -7.769380 -17.890625 22.402346 1.728515 51.553619 8.070152 2.616707 -21.533205 2.529297 -35.722660 2.000000 -2.000000 0.000000 -62.285156 -51.582031 31.640623 -93.125908 0.144694 -2.772538 -4.697585 47.055855 -39.692455 -2.000000 2.000000 0.000000 64.873047 14.267578 -41.970249 84.024391 40.751942 -3.735821 50.473488 -1.842385 -72.480461 1.834787 14.038283 2.142952 10.403574 -5.701616 -1.356683 -7.157190 -1.648958 -5.023985 1.227296 -1.046732 -18.797485 15.563476 5.991939 1.399168 -6.459771 -7.159714 -2.454730 
-20.575085 52.434109 101.658249 2.636719 0.166016 -19.511717 23.342773 -9.216968 -8.149492 -17.353516 22.021484 1.865234 51.553619 8.070152 2.616707 -21.582033 2.246094 -35.205078 2.000000 -2.000000 0.000000 -63.593754 -52.119141 33.974606 -91.550392 0.005241 -2.647108 -5.948751 47.054710 -38.609436 -2.000000 2.000000 0.000000 65.039063 14.550782 -41.071766 83.580276 40.687153 -3.276975 50.428848 -1.331958 -72.512802 2.713210 14.134406 2.604593 10.593385 -5.635542 -1.397305 -8.092116 -1.710899 -5.393580 2.516654 -1.091779 -18.628059 15.548949 5.687700 1.381934 -7.406955 -6.890348 -2.186517 
-20.601200 52.347111 101.914207 2.275391 0.166016 -19.863253 23.212887 -8.792940 -8.555872 -16.650391 21.445314 2.021484 51.553619 8.070152 2.616707 -21.621094 1.923828 -34.677410 2.000000 -2.000000 0.000000 -64.189453 -52.568359 36.083981 -90.140068 -0.143120 -2.843844 -7.085521 47.317963 -38.048641 -2.000000 2.000000 0.000000 65.546875 15.068358 -40.468746 83.276283 40.879829 -3.048032 50.610283 -0.998209 -72.048080 3.259382 13.898291 2.810186 10.943718 -5.683664 -1.431804 -8.474978 -1.295639 -5.352765 3.273442 -1.088918 -18.284605 15.550510 5.968252 1.424713 -7.890951 -6.729817 -2.607572 
-20.618570 52.283852 102.170265 2.109375 0.166016 -20.214806 23.073627 -8.610368 -8.849038 -16.152344 20.878908 2.089844 51.553619 8.070152 2.616707 -21.855471 1.494141 -34.248047 2.000000 -2.000000 0.000000 -64.707031 -53.095703 37.675781 -88.900887 -0.301367 -2.873776 -7.819390 47.588440 -37.818920 -2.000000 2.000000 0.000000 65.615234 15.361328 -39.343113 83.320328 40.731339 -3.196268 50.626148 -0.656780 -72.019028 3.817849 13.818163 3.227495 11.315829 -5.684335 -1.483979 -8.715468 -1.162261 -5.405074 4.078188 -1.345967 -18.300873 15.558430 5.616164 1.549528 -8.828753 -6.425548 -2.712336 
-20.624641 52.220585 102.418678 1.933594 0.166016 -20.576168 23.099363 -8.184219 -9.235768 -15.439453 20.302738 2.415498 51.553619 8.070152 2.616707 -22.070314 1.044922 -33.613281 2.000000 -2.000000 0.000000 -64.414063 -53.095703 38.173828 -88.012703 -0.458485 -2.884218 -8.575152 48.055073 -38.066639 -2.000000 2.000000 0.000000 65.742188 15.722656 -38.718060 83.330101 40.731339 -3.196269 50.939598 -0.426961 -71.841980 4.167394 13.686057 3.410854 11.316056 -5.684440 -1.474247 -9.113467 -1.140144 -5.546194 4.477624 -1.317216 -17.943504 15.558034 5.619015 1.530406 -9.228265 -6.247591 -2.502919 
-20.653429 52.181049 102.653969 1.933594 0.166016 -20.917969 22.959099 -7.767338 -9.626252 -14.921875 19.912109 2.509766 51.553619 8.070152 2.616707 -22.294922 0.468750 -33.066368 2.000000 -2.000000 0.000000 -64.453117 -53.417969 38.585907 -87.134628 -0.440680 -2.914585 -8.172161 48.539276 -37.865051 -2.000000 2.000000 0.000000 66.035156 16.259766 -38.162601 83.320961 40.721603 -3.196816 51.158276 -0.554489 -71.540764 4.733578 13.383024 3.833120 11.130339 -5.684055 -1.448149 -9.373322 -0.909063 -5.605530 4.831481 -1.532330 -17.783287 15.742278 5.609286 1.740240 -9.381607 -6.070614 -2.482670 
-20.679304 52.173141 102.875763 1.757813 0.166016 -21.269527 22.800795 -7.423914 -9.846763 -14.414063 19.355469 2.552064 51.553619 8.070152 2.616707 -22.529299 0.029297 -32.617188 2.000000 -2.000000 0.000000 -63.818356 -53.076172 38.019539 -86.787994 -0.441085 -3.090643 -8.355265 49.263878 -38.196281 -2.000000 2.000000 0.000000 66.259766 16.748047 -37.751095 83.580528 40.676846 -3.267778 51.557709 -0.367917 -71.223961 5.301260 13.221602 4.218768 10.767607 -5.683535 -1.406596 -9.446599 -0.603495 -5.860863 5.173955 -1.796990 -17.453327 15.946339 5.619784 1.748894 -9.492913 -5.652671 -2.710850 
-20.700924 52.133598 103.050087 1.757813 0.341797 -21.611250 22.659346 -7.247491 -10.153002 -13.896484 18.964844 2.639892 51.553619 8.070152 2.616707 -22.753906 -0.439453 -32.363354 2.000000 -2.000000 0.000000 -63.466793 -53.037109 37.697281 -86.080765 -0.422875 -2.944952 -8.543772 49.724876 -38.712990 -2.000000 2.000000 0.000000 66.171875 17.402344 -37.204113 83.580528 40.676846 -3.267778 51.760078 -0.426328 -71.070114 5.952909 13.361993 4.653822 11.311033 -5.594217 -1.282012 -10.137628 -0.777524 -6.448751 5.275639 -1.959767 -17.123220 15.944718 5.608445 1.591848 -9.586558 -5.575100 -2.700361 
-20.743196 52.125694 103.188576 1.757813 0.341797 -21.962812 22.510378 -6.909942 -10.387720 -13.544923 18.759766 2.714844 51.553619 8.070152 2.616707 -22.958986 -0.878906 -32.080082 2.000000 -2.000000 0.000000 -63.144531 -52.929684 37.197266 -85.549332 -0.414404 -2.798771 -9.116621 50.365921 -39.162682 -2.000000 2.000000 0.000000 66.464844 17.373047 -37.155285 83.791214 40.691822 -3.188716 51.756313 -0.299056 -71.168114 6.327382 13.123766 5.018950 11.139894 -5.556963 -1.400031 -10.001937 -0.638047 -6.355975 5.654998 -2.038495 -16.958349 16.272213 5.590398 1.599453 -9.570783 -5.550679 -2.677518 
-20.795307 52.109879 103.305183 1.572266 0.322266 -22.158203 22.332466 -6.825180 -10.530620 -13.173829 18.720705 2.832032 51.553619 8.070152 2.616707 -22.998047 -1.328125 -31.982418 2.000000 -2.000000 0.000000 -63.515621 -53.046875 37.580082 -85.021996 -0.394906 -2.799902 -9.802029 51.096588 -39.455994 -2.000000 2.000000 0.000000 66.298828 17.324221 -36.881859 83.791214 40.691822 -3.188716 51.376785 -0.476737 -71.288826 6.715791 13.247831 5.073214 10.948516 -5.759450 -1.448310 -10.054629 -0.429693 -6.483680 5.621238 -2.254482 -16.611349 16.448389 5.587701 1.624316 -9.612416 -5.448941 -2.641756 
-20.875240 52.094063 103.377701 1.572266 0.322266 -22.509766 22.173704 -6.995573 -10.605543 -12.988281 18.701174 2.883991 51.553619 8.070152 2.616707 -22.851563 -1.660156 -31.963175 2.000000 -2.000000 0.000000 -63.945309 -52.929688 38.195332 -84.670982 -0.396036 -2.819393 -11.275762 51.662308 -40.484432 -2.000000 2.000000 0.000000 66.279297 17.451172 -37.187500 83.985245 40.886604 -3.692563 51.272305 -1.038866 -71.076591 7.076530 13.170149 5.447797 10.952667 -5.773261 -1.439596 -10.055481 -0.431425 -6.473788 5.914925 -2.215696 -16.456163 16.795448 5.579583 1.847913 -9.438760 -5.293896 -2.762123 
